<svg id="pillbox" width="960" height="360" viewBox="0 0 960 360" fill="none" xmlns="http://www.w3.org/2000/svg">
<rect width="960" height="360" fill="white"/>
<rect x="180" y="30" width="600" height="300" fill="white"/>
<line x1="181" y1="180" x2="781" y2="180" stroke="black" stroke-width="2"/>
<rect x="181" y="30" width="599" height="44" fill="#00A6FF"/>
<rect x="181" y="286" width="598" height="44" fill="#A200FF"/>
<circle cx="215" cy="105" r="17" fill="#FFDAB9" stroke="black" stroke-width="2"/>
<circle cx="301" cy="123" r="17" fill="#FFDAB9" stroke="black" stroke-width="2"/>
<circle cx="394" cy="123" r="17" fill="#FFDAB9" stroke="black" stroke-width="2"/>
<circle cx="474" cy="120" r="17" fill="#FFDAB9" stroke="black" stroke-width="2"/>
<circle cx="557" cy="105" r="17" fill="#FFDAB9" stroke="black" stroke-width="2"/>
<circle cx="644" cy="127" r="17" fill="#FFDAB9" stroke="black" stroke-width="2"/>
<circle cx="732" cy="105" r="17" fill="#FFDAB9" stroke="black" stroke-width="2"/>
<line x1="267" y1="30" x2="267" y2="330" stroke="#808080" stroke-width="2"/>
<line x1="181" y1="30" x2="181" y2="330" stroke="#808080" stroke-width="2"/>
<line x1="352" y1="30" x2="352" y2="330" stroke="#808080" stroke-width="2"/>
<line x1="438" y1="30" x2="438" y2="330" stroke="#808080" stroke-width="2"/>
<line x1="523" y1="30" x2="523" y2="330" stroke="#808080" stroke-width="2"/>
<line x1="609" y1="30" x2="609" y2="330" stroke="#808080" stroke-width="2"/>
<line x1="694" y1="30" x2="694" y2="330" stroke="#808080" stroke-width="2"/>
<line x1="780" y1="30" x2="780" y2="330" stroke="#808080" stroke-width="2"/>
<path d="M480 208C480 210.85 478.169 213.576 474.901 215.64C471.646 217.696 467.087 219 462 219C456.913 219 452.354 217.696 449.099 215.64C445.831 213.576 444 210.85 444 208C444 205.15 445.831 202.424 449.099 200.36C452.354 198.304 456.913 197 462 197C467.087 197 471.646 198.304 474.901 200.36C478.169 202.424 480 205.15 480 208Z" fill="#BDD6AC" stroke="black" stroke-width="2"/>
<path d="M492 263C492 265.85 490.169 268.576 486.901 270.64C483.646 272.696 479.087 274 474 274C468.913 274 464.354 272.696 461.099 270.64C457.831 268.576 456 265.85 456 263C456 260.15 457.831 257.424 461.099 255.36C464.354 253.304 468.913 252 474 252C479.087 252 483.646 253.304 486.901 255.36C490.169 257.424 492 260.15 492 263Z" fill="white" stroke="black" stroke-width="2"/>
<rect x="474" y="225" width="34" height="14" rx="7" fill="#FFDAB9" stroke="black" stroke-width="2"/>
<path d="M569 210C569 212.85 567.169 215.576 563.901 217.64C560.646 219.696 556.087 221 551 221C545.913 221 541.354 219.696 538.099 217.64C534.831 215.576 533 212.85 533 210C533 207.15 534.831 204.424 538.099 202.36C541.354 200.304 545.913 199 551 199C556.087 199 560.646 200.304 563.901 202.36C567.169 204.424 569 207.15 569 210Z" fill="#BDD6AC" stroke="black" stroke-width="2"/>
<path d="M581 265C581 267.85 579.169 270.576 575.901 272.64C572.646 274.696 568.087 276 563 276C557.913 276 553.354 274.696 550.099 272.64C546.831 270.576 545 267.85 545 265C545 262.15 546.831 259.424 550.099 257.36C553.354 255.304 557.913 254 563 254C568.087 254 572.646 255.304 575.901 257.36C579.169 259.424 581 262.15 581 265Z" fill="white" stroke="black" stroke-width="2"/>
<rect x="563" y="227" width="34" height="14" rx="7" fill="#FFDAB9" stroke="black" stroke-width="2"/>
<path d="M651 208C651 210.85 649.169 213.576 645.901 215.64C642.646 217.696 638.087 219 633 219C627.913 219 623.354 217.696 620.099 215.64C616.831 213.576 615 210.85 615 208C615 205.15 616.831 202.424 620.099 200.36C623.354 198.304 627.913 197 633 197C638.087 197 642.646 198.304 645.901 200.36C649.169 202.424 651 205.15 651 208Z" fill="#BDD6AC" stroke="black" stroke-width="2"/>
<path d="M663 263C663 265.85 661.169 268.576 657.901 270.64C654.646 272.696 650.087 274 645 274C639.913 274 635.354 272.696 632.099 270.64C628.831 268.576 627 265.85 627 263C627 260.15 628.831 257.424 632.099 255.36C635.354 253.304 639.913 252 645 252C650.087 252 654.646 253.304 657.901 255.36C661.169 257.424 663 260.15 663 263Z" fill="white" stroke="black" stroke-width="2"/>
<rect x="645" y="225" width="34" height="14" rx="7" fill="#FFDAB9" stroke="black" stroke-width="2"/>
<path d="M739 207C739 209.85 737.169 212.576 733.901 214.64C730.646 216.696 726.087 218 721 218C715.913 218 711.354 216.696 708.099 214.64C704.831 212.576 703 209.85 703 207C703 204.15 704.831 201.424 708.099 199.36C711.354 197.304 715.913 196 721 196C726.087 196 730.646 197.304 733.901 199.36C737.169 201.424 739 204.15 739 207Z" fill="#BDD6AC" stroke="black" stroke-width="2"/>
<path d="M751 262C751 264.85 749.169 267.576 745.901 269.64C742.646 271.696 738.087 273 733 273C727.913 273 723.354 271.696 720.099 269.64C716.831 267.576 715 264.85 715 262C715 259.15 716.831 256.424 720.099 254.36C723.354 252.304 727.913 251 733 251C738.087 251 742.646 252.304 745.901 254.36C749.169 256.424 751 259.15 751 262Z" fill="white" stroke="black" stroke-width="2"/>
<rect x="733" y="224" width="34" height="14" rx="7" fill="#FFDAB9" stroke="black" stroke-width="2"/>
<path d="M402 213C402 215.85 400.169 218.576 396.901 220.64C393.646 222.696 389.087 224 384 224C378.913 224 374.354 222.696 371.099 220.64C367.831 218.576 366 215.85 366 213C366 210.15 367.831 207.424 371.099 205.36C374.354 203.304 378.913 202 384 202C389.087 202 393.646 203.304 396.901 205.36C400.169 207.424 402 210.15 402 213Z" fill="#BDD6AC" stroke="black" stroke-width="2"/>
<path d="M414 268C414 270.85 412.169 273.576 408.901 275.64C405.646 277.696 401.087 279 396 279C390.913 279 386.354 277.696 383.099 275.64C379.831 273.576 378 270.85 378 268C378 265.15 379.831 262.424 383.099 260.36C386.354 258.304 390.913 257 396 257C401.087 257 405.646 258.304 408.901 260.36C412.169 262.424 414 265.15 414 268Z" fill="white" stroke="black" stroke-width="2"/>
<rect x="396" y="230" width="34" height="14" rx="7" fill="#FFDAB9" stroke="black" stroke-width="2"/>
<path d="M316 205C316 207.85 314.169 210.576 310.901 212.64C307.646 214.696 303.087 216 298 216C292.913 216 288.354 214.696 285.099 212.64C281.831 210.576 280 207.85 280 205C280 202.15 281.831 199.424 285.099 197.36C288.354 195.304 292.913 194 298 194C303.087 194 307.646 195.304 310.901 197.36C314.169 199.424 316 202.15 316 205Z" fill="#BDD6AC" stroke="black" stroke-width="2"/>
<path d="M328 260C328 262.85 326.169 265.576 322.901 267.64C319.646 269.696 315.087 271 310 271C304.913 271 300.354 269.696 297.099 267.64C293.831 265.576 292 262.85 292 260C292 257.15 293.831 254.424 297.099 252.36C300.354 250.304 304.913 249 310 249C315.087 249 319.646 250.304 322.901 252.36C326.169 254.424 328 257.15 328 260Z" fill="white" stroke="black" stroke-width="2"/>
<rect x="310" y="222" width="34" height="14" rx="7" fill="#FFDAB9" stroke="black" stroke-width="2"/>
<path d="M227 205C227 207.85 225.169 210.576 221.901 212.64C218.646 214.696 214.087 216 209 216C203.913 216 199.354 214.696 196.099 212.64C192.831 210.576 191 207.85 191 205C191 202.15 192.831 199.424 196.099 197.36C199.354 195.304 203.913 194 209 194C214.087 194 218.646 195.304 221.901 197.36C225.169 199.424 227 202.15 227 205Z" fill="#BDD6AC" stroke="black" stroke-width="2"/>
<path d="M239 260C239 262.85 237.169 265.576 233.901 267.64C230.646 269.696 226.087 271 221 271C215.913 271 211.354 269.696 208.099 267.64C204.831 265.576 203 262.85 203 260C203 257.15 204.831 254.424 208.099 252.36C211.354 250.304 215.913 249 221 249C226.087 249 230.646 250.304 233.901 252.36C237.169 254.424 239 257.15 239 260Z" fill="white" stroke="black" stroke-width="2"/>
<rect x="221" y="222" width="34" height="14" rx="7" fill="#FFDAB9" stroke="black" stroke-width="2"/>
<path d="M795.885 116V105.818H798.038V114.225H802.403V116H795.885ZM803.828 116V105.818H810.689V107.593H805.981V110.019H810.336V111.794H805.981V114.225H810.709V116H803.828ZM814.24 105.818L816.701 113.554H816.795L819.261 105.818H821.648L818.138 116H815.364L811.849 105.818H814.24ZM831.656 110.909C831.656 112.019 831.445 112.964 831.024 113.743C830.607 114.522 830.036 115.117 829.314 115.528C828.595 115.935 827.786 116.139 826.888 116.139C825.983 116.139 825.171 115.934 824.452 115.523C823.732 115.112 823.164 114.517 822.746 113.738C822.329 112.959 822.12 112.016 822.12 110.909C822.12 109.799 822.329 108.854 822.746 108.075C823.164 107.296 823.732 106.703 824.452 106.295C825.171 105.884 825.983 105.679 826.888 105.679C827.786 105.679 828.595 105.884 829.314 106.295C830.036 106.703 830.607 107.296 831.024 108.075C831.445 108.854 831.656 109.799 831.656 110.909ZM829.473 110.909C829.473 110.19 829.365 109.583 829.15 109.089C828.938 108.596 828.638 108.221 828.25 107.966C827.862 107.711 827.408 107.583 826.888 107.583C826.367 107.583 825.913 107.711 825.526 107.966C825.138 108.221 824.836 108.596 824.621 109.089C824.409 109.583 824.303 110.19 824.303 110.909C824.303 111.628 824.409 112.235 824.621 112.729C824.836 113.223 825.138 113.597 825.526 113.852C825.913 114.107 826.367 114.235 826.888 114.235C827.408 114.235 827.862 114.107 828.25 113.852C828.638 113.597 828.938 113.223 829.15 112.729C829.365 112.235 829.473 111.628 829.473 110.909ZM832.398 107.593V105.818H840.76V107.593H837.643V116H835.515V107.593H832.398ZM842.137 116V105.818H844.29V110.019H848.66V105.818H850.807V116H848.66V111.794H844.29V116H842.137ZM851.986 105.818H854.397L856.719 110.203H856.818L859.14 105.818H861.551L857.837 112.401V116H855.699V112.401L851.986 105.818ZM862.727 116V105.818H866.744C867.513 105.818 868.169 105.956 868.713 106.231C869.259 106.503 869.675 106.889 869.96 107.389C870.249 107.886 870.393 108.471 870.393 109.144C870.393 109.82 870.247 110.402 869.955 110.889C869.664 111.373 869.241 111.744 868.688 112.003C868.137 112.261 867.471 112.391 866.689 112.391H863.999V110.661H866.341C866.752 110.661 867.093 110.604 867.365 110.491C867.637 110.379 867.839 110.21 867.972 109.984C868.108 109.759 868.176 109.479 868.176 109.144C868.176 108.806 868.108 108.521 867.972 108.289C867.839 108.057 867.635 107.881 867.36 107.762C867.088 107.639 866.745 107.578 866.331 107.578H864.879V116H862.727ZM868.225 111.366L870.756 116H868.379L865.904 111.366H868.225ZM881.271 110.909C881.271 112.019 881.06 112.964 880.639 113.743C880.222 114.522 879.652 115.117 878.929 115.528C878.21 115.935 877.401 116.139 876.503 116.139C875.598 116.139 874.786 115.934 874.067 115.523C873.348 115.112 872.779 114.517 872.362 113.738C871.944 112.959 871.735 112.016 871.735 110.909C871.735 109.799 871.944 108.854 872.362 108.075C872.779 107.296 873.348 106.703 874.067 106.295C874.786 105.884 875.598 105.679 876.503 105.679C877.401 105.679 878.21 105.884 878.929 106.295C879.652 106.703 880.222 107.296 880.639 108.075C881.06 108.854 881.271 109.799 881.271 110.909ZM879.088 110.909C879.088 110.19 878.981 109.583 878.765 109.089C878.553 108.596 878.253 108.221 877.865 107.966C877.477 107.711 877.023 107.583 876.503 107.583C875.983 107.583 875.529 107.711 875.141 107.966C874.753 108.221 874.451 108.596 874.236 109.089C874.024 109.583 873.918 110.19 873.918 110.909C873.918 111.628 874.024 112.235 874.236 112.729C874.451 113.223 874.753 113.597 875.141 113.852C875.529 114.107 875.983 114.235 876.503 114.235C877.023 114.235 877.477 114.107 877.865 113.852C878.253 113.597 878.553 113.223 878.765 112.729C878.981 112.235 879.088 111.628 879.088 110.909ZM884.405 105.818L886.459 109.288H886.538L888.601 105.818H891.032L887.925 110.909L891.102 116H888.626L886.538 112.525H886.459L884.371 116H881.905L885.091 110.909L881.964 105.818H884.405ZM894.547 105.818V116H892.395V105.818H894.547ZM904.835 105.818V116H902.975L898.546 109.592H898.471V116H896.319V105.818H898.208L902.603 112.222H902.692V105.818H904.835ZM906.613 116V105.818H913.474V107.593H908.766V110.019H913.121V111.794H908.766V114.225H913.494V116H906.613Z" fill="black"/>
<path d="M795.885 207V196.818H798.038V205.225H802.403V207H795.885ZM812.788 201.909C812.788 203.019 812.578 203.964 812.157 204.743C811.739 205.522 811.169 206.117 810.447 206.528C809.728 206.935 808.919 207.139 808.021 207.139C807.116 207.139 806.304 206.934 805.585 206.523C804.865 206.112 804.297 205.517 803.879 204.738C803.462 203.959 803.253 203.016 803.253 201.909C803.253 200.799 803.462 199.854 803.879 199.075C804.297 198.296 804.865 197.703 805.585 197.295C806.304 196.884 807.116 196.679 808.021 196.679C808.919 196.679 809.728 196.884 810.447 197.295C811.169 197.703 811.739 198.296 812.157 199.075C812.578 199.854 812.788 200.799 812.788 201.909ZM810.606 201.909C810.606 201.19 810.498 200.583 810.283 200.089C810.071 199.596 809.771 199.221 809.383 198.966C808.995 198.711 808.541 198.583 808.021 198.583C807.5 198.583 807.046 198.711 806.658 198.966C806.271 199.221 805.969 199.596 805.754 200.089C805.541 200.583 805.435 201.19 805.435 201.909C805.435 202.628 805.541 203.235 805.754 203.729C805.969 204.223 806.271 204.597 806.658 204.852C807.046 205.107 807.5 205.235 808.021 205.235C808.541 205.235 808.995 205.107 809.383 204.852C809.771 204.597 810.071 204.223 810.283 203.729C810.498 203.235 810.606 202.628 810.606 201.909ZM819.906 199.746C819.867 199.345 819.696 199.034 819.394 198.812C819.093 198.59 818.683 198.479 818.166 198.479C817.815 198.479 817.518 198.528 817.276 198.628C817.035 198.724 816.849 198.858 816.72 199.031C816.594 199.203 816.531 199.398 816.531 199.617C816.524 199.799 816.562 199.959 816.645 200.094C816.731 200.23 816.849 200.348 816.998 200.447C817.147 200.544 817.32 200.628 817.515 200.701C817.711 200.771 817.919 200.83 818.142 200.88L819.056 201.099C819.5 201.198 819.908 201.331 820.279 201.496C820.651 201.662 820.972 201.866 821.244 202.108C821.516 202.35 821.726 202.635 821.875 202.963C822.028 203.291 822.106 203.667 822.109 204.092C822.106 204.715 821.946 205.255 821.632 205.712C821.32 206.166 820.869 206.519 820.279 206.771C819.693 207.02 818.985 207.144 818.156 207.144C817.334 207.144 816.619 207.018 816.009 206.766C815.402 206.514 814.928 206.142 814.587 205.648C814.249 205.151 814.071 204.536 814.055 203.803H816.138C816.161 204.145 816.259 204.43 816.431 204.658C816.607 204.884 816.841 205.054 817.132 205.17C817.427 205.283 817.76 205.339 818.132 205.339C818.496 205.339 818.813 205.286 819.081 205.18C819.353 205.074 819.563 204.927 819.713 204.738C819.862 204.549 819.936 204.332 819.936 204.087C819.936 203.858 819.868 203.666 819.732 203.51C819.6 203.354 819.404 203.222 819.146 203.112C818.891 203.003 818.577 202.903 818.206 202.814L817.097 202.536C816.239 202.327 815.561 202 815.064 201.556C814.567 201.112 814.32 200.514 814.323 199.761C814.32 199.145 814.484 198.606 814.816 198.146C815.15 197.685 815.609 197.325 816.193 197.067C816.776 196.808 817.439 196.679 818.181 196.679C818.937 196.679 819.597 196.808 820.16 197.067C820.727 197.325 821.168 197.685 821.482 198.146C821.797 198.606 821.96 199.14 821.97 199.746H819.906ZM825.079 207H822.773L826.287 196.818H829.062L832.572 207H830.265L827.714 199.145H827.635L825.079 207ZM824.935 202.998H830.384V204.678H824.935V202.998ZM833.797 207V196.818H837.814C838.583 196.818 839.239 196.956 839.783 197.231C840.33 197.503 840.746 197.889 841.031 198.389C841.319 198.886 841.463 199.471 841.463 200.144C841.463 200.82 841.317 201.402 841.026 201.889C840.734 202.373 840.311 202.744 839.758 203.003C839.208 203.261 838.542 203.391 837.759 203.391H835.07V201.661H837.411C837.822 201.661 838.164 201.604 838.436 201.491C838.707 201.379 838.91 201.21 839.042 200.984C839.178 200.759 839.246 200.479 839.246 200.144C839.246 199.806 839.178 199.521 839.042 199.289C838.91 199.057 838.706 198.881 838.431 198.762C838.159 198.639 837.816 198.578 837.401 198.578H835.95V207H833.797ZM839.296 202.366L841.826 207H839.45L836.974 202.366H839.296ZM842.597 198.593V196.818H850.959V198.593H847.842V207H845.714V198.593H842.597ZM852.847 207H850.54L854.055 196.818H856.829L860.339 207H858.032L855.482 199.145H855.402L852.847 207ZM852.703 202.998H858.152V204.678H852.703V202.998ZM870.081 196.818V207H868.222L863.792 200.592H863.717V207H861.565V196.818H863.454L867.849 203.222H867.938V196.818H870.081Z" fill="black"/>
<path d="M795.885 223.818H798.54L801.344 230.659H801.463L804.267 223.818H806.922V234H804.834V227.373H804.749L802.114 233.95H800.692L798.058 227.348H797.973V234H795.885V223.818ZM808.695 234V223.818H815.556V225.593H810.848V228.019H815.203V229.794H810.848V232.225H815.576V234H808.695ZM817.268 223.818H819.923L822.727 230.659H822.846L825.65 223.818H828.305V234H826.217V227.373H826.132L823.497 233.95H822.075L819.44 227.348H819.356V234H817.268V223.818ZM831.833 234H829.526L833.041 223.818H835.816L839.325 234H837.019L834.468 226.145H834.389L831.833 234ZM831.689 229.998H837.138V231.678H831.689V229.998ZM849.067 223.818V234H847.208L842.778 227.592H842.704V234H840.551V223.818H842.44L846.835 230.222H846.925V223.818H849.067ZM850.458 225.593V223.818H858.82V225.593H855.703V234H853.575V225.593H850.458ZM862.35 223.818V234H860.197V223.818H862.35ZM872.638 223.818V234H870.778L866.349 227.592H866.274V234H864.121V223.818H866.01L870.405 230.222H870.495V223.818H872.638ZM874.416 234V223.818H881.277V225.593H876.569V228.019H880.924V229.794H876.569V232.225H881.297V234H874.416Z" fill="black"/>
<path d="M797.64 263H795.333L798.848 252.818H801.622L805.132 263H802.825L800.275 255.145H800.195L797.64 263ZM797.496 258.998H802.945V260.678H797.496V258.998ZM804.726 254.593V252.818H813.088V254.593H809.971V263H807.843V254.593H804.726ZM823.357 257.909C823.357 259.019 823.146 259.964 822.725 260.743C822.308 261.522 821.738 262.117 821.015 262.528C820.296 262.935 819.487 263.139 818.589 263.139C817.684 263.139 816.872 262.934 816.153 262.523C815.434 262.112 814.865 261.517 814.448 260.738C814.03 259.959 813.821 259.016 813.821 257.909C813.821 256.799 814.03 255.854 814.448 255.075C814.865 254.296 815.434 253.703 816.153 253.295C816.872 252.884 817.684 252.679 818.589 252.679C819.487 252.679 820.296 252.884 821.015 253.295C821.738 253.703 822.308 254.296 822.725 255.075C823.146 255.854 823.357 256.799 823.357 257.909ZM821.174 257.909C821.174 257.19 821.066 256.583 820.851 256.089C820.639 255.596 820.339 255.221 819.951 254.966C819.563 254.711 819.109 254.583 818.589 254.583C818.069 254.583 817.615 254.711 817.227 254.966C816.839 255.221 816.537 255.596 816.322 256.089C816.11 256.583 816.004 257.19 816.004 257.909C816.004 258.628 816.11 259.235 816.322 259.729C816.537 260.223 816.839 260.597 817.227 260.852C817.615 261.107 818.069 261.235 818.589 261.235C819.109 261.235 819.563 261.107 819.951 260.852C820.339 260.597 820.639 260.223 820.851 259.729C821.066 259.235 821.174 258.628 821.174 257.909ZM824.951 263V252.818H828.968C829.737 252.818 830.394 252.956 830.937 253.231C831.484 253.503 831.9 253.889 832.185 254.389C832.473 254.886 832.618 255.471 832.618 256.144C832.618 256.82 832.472 257.402 832.18 257.889C831.888 258.373 831.466 258.744 830.912 259.003C830.362 259.261 829.696 259.391 828.914 259.391H826.224V257.661H828.566C828.977 257.661 829.318 257.604 829.59 257.491C829.862 257.379 830.064 257.21 830.196 256.984C830.332 256.759 830.4 256.479 830.4 256.144C830.4 255.806 830.332 255.521 830.196 255.289C830.064 255.057 829.86 254.881 829.585 254.762C829.313 254.639 828.97 254.578 828.556 254.578H827.104V263H824.951ZM830.45 258.366L832.98 263H830.604L828.128 258.366H830.45ZM835.705 252.818L838.166 260.554H838.26L840.726 252.818H843.113L839.603 263H836.828L833.314 252.818H835.705ZM844.74 263H842.433L845.948 252.818H848.722L852.232 263H849.925L847.374 255.145H847.295L844.74 263ZM844.595 258.998H850.044V260.678H844.595V258.998ZM858.748 255.746C858.708 255.345 858.538 255.034 858.236 254.812C857.935 254.59 857.525 254.479 857.008 254.479C856.657 254.479 856.36 254.528 856.118 254.628C855.876 254.724 855.691 254.858 855.561 255.031C855.435 255.203 855.373 255.398 855.373 255.617C855.366 255.799 855.404 255.959 855.487 256.094C855.573 256.23 855.691 256.348 855.84 256.447C855.989 256.544 856.161 256.628 856.357 256.701C856.552 256.771 856.761 256.83 856.983 256.88L857.898 257.099C858.342 257.198 858.75 257.331 859.121 257.496C859.492 257.662 859.814 257.866 860.086 258.108C860.357 258.35 860.568 258.635 860.717 258.963C860.869 259.291 860.947 259.667 860.951 260.092C860.947 260.715 860.788 261.255 860.473 261.712C860.162 262.166 859.711 262.519 859.121 262.771C858.534 263.02 857.827 263.144 856.998 263.144C856.176 263.144 855.46 263.018 854.85 262.766C854.244 262.514 853.77 262.142 853.429 261.648C853.091 261.151 852.913 260.536 852.897 259.803H854.98C855.003 260.145 855.101 260.43 855.273 260.658C855.449 260.884 855.682 261.054 855.974 261.17C856.269 261.283 856.602 261.339 856.973 261.339C857.338 261.339 857.654 261.286 857.923 261.18C858.195 261.074 858.405 260.927 858.554 260.738C858.703 260.549 858.778 260.332 858.778 260.087C858.778 259.858 858.71 259.666 858.574 259.51C858.442 259.354 858.246 259.222 857.988 259.112C857.732 259.003 857.419 258.903 857.048 258.814L855.939 258.536C855.081 258.327 854.403 258 853.906 257.556C853.409 257.112 853.162 256.514 853.165 255.761C853.162 255.145 853.326 254.606 853.657 254.146C853.992 253.685 854.451 253.325 855.034 253.067C855.618 252.808 856.281 252.679 857.023 252.679C857.779 252.679 858.438 252.808 859.002 253.067C859.569 253.325 860.009 253.685 860.324 254.146C860.639 254.606 860.801 255.14 860.811 255.746H858.748ZM862.011 254.593V252.818H870.373V254.593H867.256V263H865.128V254.593H862.011ZM872.261 263H869.954L873.469 252.818H876.243L879.753 263H877.446L874.896 255.145H874.816L872.261 263ZM872.117 258.998H877.566V260.678H872.117V258.998ZM879.347 254.593V252.818H887.709V254.593H884.592V263H882.464V254.593H879.347ZM891.239 252.818V263H889.086V252.818H891.239ZM901.526 252.818V263H899.667L895.237 256.592H895.163V263H893.01V252.818H894.899L899.294 259.222H899.384V252.818H901.526Z" fill="black"/>
</svg>
